<?xml version="1.0" encoding="utf-8"?>
<!-- Generator: Adobe Illustrator 15.1.0, SVG Export Plug-In  -->
<!DOCTYPE svg PUBLIC "-//W3C//DTD SVG 1.1//EN" "http://www.w3.org/Graphics/SVG/1.1/DTD/svg11.dtd" [
	<!ENTITY ns_flows "http://ns.adobe.com/Flows/1.0/">
]>
<svg version="1.1"
	 xmlns="http://www.w3.org/2000/svg" xmlns:xlink="http://www.w3.org/1999/xlink" xmlns:a="http://ns.adobe.com/AdobeSVGViewerExtensions/3.0/"
	 x="0px" y="0px" width="1000px" height="1000px" viewBox="0 -32.291 1000 1000"
	 overflow="visible" enable-background="new 0 -32.291 1000 1000" xml:space="preserve">
<defs>
</defs>
<path fill="#004982" d="M521.95,484.407c100.705-48.972,152.871-145.589,116.495-215.794
	c-36.368-70.198-147.504-87.417-248.215-38.444c-100.706,48.973-152.865,145.587-116.489,215.789
	C310.111,516.164,421.239,533.379,521.95,484.407z"/>
<path fill="#004982" d="M159.674,152.361c0,0,119.152-145.235,338.159-152.361c0,0-42.641,97.397-9.984,167.538
	c0,0-100.754,16.395-193.551,85.004C294.298,252.542,251.579,167.929,159.674,152.361z"/>
<path fill="#004982" d="M518.538,161.841c0,0-0.433-37.571,73.655-77.628c0,0-20.303-67.689-42.32-82.818
	c16.56-2.959,158.076,24.017,193.862,138.416c0,0,41.038-63.856,20.939-109.648c0,0,127.174,62.885,60.634,214.521
	C825.309,244.683,741.368,128.681,518.538,161.841z"/>
<path fill="#004982" d="M836.255,259.157c0,0,83.193-67.868,85.387-137.92c0,0,50.35,56.918-6.565,214.54
	c0,0,65.675-52.544,70.046-59.106c0,0,63.56,164.217-190.386,289.008C794.736,565.678,926.093,395.623,836.255,259.157z"/>
<path fill="#004982" d="M592.814,725.524c0,0,60.036,36.769,149.072,4.293c0,0,67.767-26.771,127.599,3.342
	c0,0-3.743-140.879,130.515-160.242c0,0-86.536-54.492-255.833,51.179C744.167,624.095,693.488,679.724,592.814,725.524z"/>
<path fill="#004982" d="M127.372,190.597c0,0-7.216,61.234,25.3,92.223c0,0,60.76-31.483,117.466-11.186
	c0,0-122.998,92.062-153.079,233.646C117.059,505.281-23.533,383.873,127.372,190.597z"/>
<path fill="#004982" d="M113.676,523.059c0,0-30.334,119.436,81.374,200.943c0,0-92.154,54.009-195.049-94.855
	c0,0,26.265,10.941,70.054,6.562c0,0-78.81-48.163-67.872-194.835C2.182,440.874,45.81,518.679,113.676,523.059z"/>
<path fill="#004982" d="M516.101,518.326c8.94-2.933,45.057-21.451,56.78-30.054c11.929,24.207,50.011,113.208,11.882,210.025
	c0,0-218.484,108.388-365.083,7.722c-130.028-89.284-72.323-238.076-31.666-298.279c0,0,15.579,179.807,79.062,210.45
	c0,0,35.029-10.946,35.029-76.62c0,0,87.57,142.294,221.112,129.158C523.216,670.728,556.753,606.552,516.101,518.326z"/>
<path fill="#004982" d="M633.091,672.989c0,0,84.577-145.519,43.357-278.098c0,0,61.303,37.217,72.248,26.27
	c0,0,35.031-159.81-67.868-227.68c0,0,253.277,47.919,119.381,310.038C800.209,503.519,760.9,595.543,633.091,672.989z"/>
<path fill="#004982" d="M841.264,56.482c0-23.212,18.824-40.325,41.077-40.325c22.025,0,40.858,17.113,40.858,40.325
	c0,23.427-18.833,40.543-40.858,40.543C860.088,97.025,841.264,79.909,841.264,56.482z M882.341,90.287
	c18.291,0,32.728-14.335,32.728-33.805c0-19.143-14.437-33.586-32.728-33.586c-18.502,0-32.946,14.443-32.946,33.586
	C849.395,75.952,863.839,90.287,882.341,90.287z M873.778,79.909h-7.062V33.27h17.764c11.017,0,16.466,4.069,16.466,13.265
	c0,8.345-5.237,11.982-12.086,12.835l13.265,20.539h-7.918l-12.298-20.216h-8.131V79.909z M882.231,53.703
	c5.983,0,11.331-0.429,11.331-7.594c0-5.777-5.229-6.847-10.151-6.847h-9.633v14.441H882.231z"/>
<path fill-rule="evenodd" clip-rule="evenodd" fill="#004982" d="M357.857,851.486c0-20.578-13.676-28.253-49.397-28.253
	c-32.047,0-49.397,5.878-59.807,20.574c-10.82,15.515-20.413,45.726-20.413,64.994c0,9.637,4.492,16.985,13.063,21.228
	c7.553,3.759,18.575,5.39,36.13,5.39c43.885,0,59.195-9.306,71.648-44.416C354.592,875.328,357.857,861.284,357.857,851.486z
	 M302.336,846.256c7.349,0,11.227,3.594,11.227,10.455c0,5.713-4.083,22.697-10.002,37.067
	c-5.919,14.044-10.818,18.616-20.004,18.616c-7.553,0-11.429-3.428-11.429-9.798c0-7.349,3.674-21.065,10.205-37.559
	C287.844,850.833,292.743,846.256,302.336,846.256z"/>
<path fill-rule="evenodd" clip-rule="evenodd" fill="#004982" d="M576.828,925.263c-1.227,1.797-1.636,3.106-1.636,4.411
	c0,2.941,2.454,4.246,7.958,4.246h35.723l1.022-4.084c-4.081-0.653-5.921-1.959-5.921-4.408c0-1.144,0.613-2.61,1.636-4.407
	l7.14-12.738h35.109l0.613,17.472c0.205,7.022,1.636,8.166,11.024,8.166h37.76l1.227-4.084c-5.308-0.814-7.557-2.776-7.957-7.184
	l-5.309-87.526c-0.204-5.226-0.408-6.369-1.227-7.675c-1.431-1.797-3.672-2.449-8.775-2.449h-54.705l-1.227,4.081
	c3.877,0.326,5.922,1.632,5.922,3.755c0,1.309-1.022,3.267-3.264,7.021L576.828,925.263z M633.365,889.34l22.458-39.683
	l1.423,39.683H633.365z"/>
<path fill-rule="evenodd" clip-rule="evenodd" fill="#004982" d="M858.838,925.102c-0.409,1.471-0.817,2.775-0.817,3.594
	c0,3.594,3.271,5.225,10.206,5.225h63.071c13.683,0,20.414-1.305,27.562-5.225c10.002-5.717,15.923-14.696,22.654-35.109
	c6.738-19.922,9.798-34.945,9.798-45.561c0-8.492-1.833-13.717-6.527-17.799c-4.898-4.08-10.002-5.225-25.516-5.225h-80.018
	l-1.227,4.081c4.49,0.652,6.534,2.288,6.534,5.063c0,0.979-0.204,1.793-1.022,4.572L858.838,925.102z M934.16,846.881
	c8.571,0,11.63,2.289,11.63,8.493c0,4.246-1.627,12.247-5.095,24.168c-4.907,17.146-8.579,25.312-12.864,28.905
	c-2.854,2.284-4.899,2.61-15.311,2.61h-6.322l18.369-64.337L934.16,846.881z"/>
<path fill="#004982" d="M43.681,910.08H28.373c-11.636,0-14.696-1.145-14.696-6.53H7.959l-4.899,16.98
	c-0.409,1.632-1.429,5.551-1.429,6.53c0,2.94,2.245,5.063,5.716,6.043c2.245,0.653,4.694,0.817,10.614,0.817h40.415
	c17.353,0,25.312-2.614,33.069-11.268c6.53-7.021,13.268-25.312,13.268-35.763c0-4.898-1.838-8.979-5.513-11.921
	c-2.654-2.123-6.735-4.08-15.103-7.183l-13.27-4.899c-6.735-2.449-8.369-3.92-8.369-7.348c0-3.92,2.041-7.021,5.715-8.492
	c2.449-0.979,5.104-1.31,12.452-1.31h17.35c8.371,0,10.002-1.306,12.247-8.653l3.268-12.082H62.256
	c-10.614,0-14.492,0.487-19.187,2.61c-6.737,2.776-12.656,9.472-16.33,18.29c-3.061,7.675-5.512,17.473-5.512,22.045
	c0,7.84,5.308,12.899,19.393,18.29l13.472,4.899c7.757,2.61,10.002,4.733,10.002,8.818c0,3.263-1.838,6.369-4.899,8.001
	C56.132,909.588,53.683,910.08,43.681,910.08z"/>
<path fill="#004982" d="M545.886,833.821c0.409-1.309,0.614-2.779,0.614-3.594c0-3.593-3.06-5.225-10.003-5.225H496.9l-1.225,4.081
	c4.492,0.652,6.533,2.288,6.533,5.063c0,0.979-0.205,1.793-1.021,4.572l-24.699,86.383c-0.409,1.306-0.611,2.775-0.611,3.755
	c0,3.433,2.856,5.063,9.593,5.063h61.847c10.207,0,12.455-1.305,14.492-8.657l5.921-20.735h-5.717
	c-2.241,5.387-4.898,6.53-15.923,6.53h-22.245L545.886,833.821z"/>
<path fill="#004982" d="M722.512,925.102c-0.409,1.145-0.817,2.775-0.817,3.755c0,3.433,3.263,5.063,10.206,5.063h32.656
	l1.022-4.084c-4.285-0.653-6.33-2.119-6.33-5.061c0-0.979,0.205-1.797,1.022-4.572l11.842-41.314l22.45,48.336
	c2.862,6.204,3.672,6.695,12.251,6.695h26.122l28.583-100.1c0.409-1.309,0.613-2.779,0.613-3.759c0-3.428-3.067-5.06-10.002-5.06
	h-32.665l-1.227,4.081c4.498,0.652,6.535,2.288,6.535,5.063c0,0.979-0.205,1.793-1.022,4.572l-9.798,34.293l-20.209-43.764
	c-1.627-3.759-2.854-4.246-10.607-4.246h-40.213l-1.227,4.081c4.49,0.652,6.534,2.288,6.534,5.063c0,0.979-0.204,1.793-1.022,4.572
	L722.512,925.102z"/>
<path fill="#004982" d="M210.951,846.555c8.775,0,10.818-1.309,12.858-8.657l3.674-13.061h-52.663
	c-31.231,0-41.233,10.611-53.48,56.824c-3.47,13.718-5.104,22.21-5.104,28.905c0,9.472,3.472,16.002,11.024,19.922
	c6.53,3.428,14.696,4.407,38.986,4.407c29.188,0,33.68-0.487,38.579-3.755c2.245-1.632,4.081-4.572,5.51-9.471l4.899-17.308h-5.51
	c-2.247,5.386-5.103,6.53-16.125,6.53h-13.676c-5.919,0-8.166-0.165-10.411-0.491c-4.899-0.979-7.757-4.568-7.757-9.472
	c0-3.102,1.022-8.001,3.472-17.146c3.061-11.269,6.735-22.045,8.98-26.944c3.676-8.162,7.146-10.285,17.148-10.285H210.951z"/>
<path fill="#004982" d="M380.23,925.102c-0.409,1.471-0.611,2.775-0.611,3.594c0,3.594,3.061,5.225,10.002,5.225h39.598l1.225-4.084
	c-4.286-0.653-6.326-2.119-6.326-5.061c0-0.979,0-1.797,0.816-4.572l21.024-73.482h19.595c8.777,0,10.002-0.818,12.452-9.637
	l3.564-12.09l-90.521,0.008c-10.409,0-11.634,0.813-14.288,10.124l-4.899,17.146h5.715c2.245-4.572,4.288-5.551,12.247-5.391
	l12.86-0.16L380.23,925.102z"/>
</svg>
