<?xml version="1.0" encoding="utf-8"?>
<!-- Generator: Adobe Illustrator 16.0.0, SVG Export Plug-In . SVG Version: 6.00 Build 0)  -->
<!DOCTYPE svg PUBLIC "-//W3C//DTD SVG 1.1//EN" "http://www.w3.org/Graphics/SVG/1.1/DTD/svg11.dtd">
<svg version="1.1" xmlns="http://www.w3.org/2000/svg" xmlns:xlink="http://www.w3.org/1999/xlink" x="0px" y="0px" width="200px"
	 height="200px" viewBox="0 0 200 200" enable-background="new 0 0 200 200" xml:space="preserve">
<g id="Layer_2" display="none">
	
		<image display="inline" overflow="visible" width="1150" height="1050" xlink:href="../../_reference/ball.jpg"  transform="matrix(0.2747 0 0 0.2747 178.8716 238.9863)">
	</image>
</g>
<g id="Layer_1">
	<g>
		<path fill="none" d="M34.286,157.143"/>
		<g>
			<polygon fill="#EFF0EC" points="5.714,105.714 11.429,105.714 5.714,117.143 			"/>
		</g>
		<g>
			<polygon fill="#FDFDFC" points="5.714,105.714 0,134.286 5.714,117.143 			"/>
		</g>
		<line fill="none" x1="5.714" y1="157.143" x2="0" y2="134.286"/>
		<path fill="none" d="M85.714,174.286"/>
		<path fill="none" d="M34.286,157.143"/>
		<line fill="#1A1A1A" x1="11.429" y1="157.143" x2="34.286" y2="157.143"/>
		<polygon fill="#1A1A1A" points="28.571,151.428 34.286,157.143 11.429,157.143 		"/>
		<polygon fill="#49484C" points="17.143,117.143 11.429,134.286 22.857,134.286 		"/>
		<path fill="none" d="M34.286,157.143"/>
		<path fill="none" d="M91.429,162.857"/>
		<line fill="#1C1C1C" x1="91.429" y1="151.428" x2="91.429" y2="162.857"/>
		<path fill="none" d="M91.429,151.428"/>
		<polygon fill="#1C1C1C" points="91.429,162.857 114.286,151.428 91.429,151.428 		"/>
		<polygon fill="#151515" points="91.429,151.428 114.286,140 114.286,151.428 		"/>
		<polygon fill="#141414" points="131.429,140 114.286,140 114.286,151.428 		"/>
		<line fill="none" x1="85.714" y1="174.286" x2="91.429" y2="162.857"/>
		<polygon fill="#4E8840" points="108.571,162.857 85.714,174.286 91.429,162.857 		"/>
		<polygon fill="#4C843F" points="125.714,151.428 108.571,162.857 91.429,162.857 		"/>
		<polygon fill="#4B7D3B" points="131.429,140 125.714,151.428 114.286,151.428 		"/>
		<polygon fill="#4D8741" points="91.429,162.857 125.714,151.428 114.286,151.428 		"/>
		<path fill="none" d="M91.429,162.857"/>
		<path fill="none" d="M34.286,157.143"/>
		<path fill="none" d="M5.714,157.143"/>
		<line fill="#7CA72B" x1="11.429" y1="157.143" x2="5.714" y2="157.143"/>
		<polygon fill="#7CA72B" points="11.429,157.143 11.429,134.286 5.714,157.143 		"/>
		<polygon fill="#92BC3B" points="0,134.286 11.429,134.286 5.714,157.143 		"/>
		<polygon fill="#161919" points="28.571,151.428 11.429,134.286 11.429,157.143 		"/>
		<polygon fill="#313335" points="22.857,134.286 11.429,134.286 28.571,151.428 		"/>
		<polygon fill="#9EA298" points="91.429,185.714 108.571,180 85.714,174.286 		"/>
		<polygon fill="#989D93" points="108.571,162.857 108.571,180 85.714,174.286 		"/>
		<polygon fill="#7E8276" points="131.429,168.572 108.571,180 108.571,162.857 		"/>
		<polygon fill="#94978A" points="125.714,151.428 108.571,162.857 131.429,168.572 		"/>
		<polygon fill="#858B83" points="142.857,162.857 131.429,168.572 125.714,151.428 		"/>
		<polygon fill="#83867F" points="154.286,151.428 125.714,151.428 142.857,162.857 		"/>
		<polygon fill="#989C92" points="142.857,140 125.714,151.428 154.286,151.428 		"/>
		<polygon fill="#979990" points="171.429,134.286 154.286,151.428 142.857,140 		"/>
		<polygon fill="#93948E" points="182.857,117.143 171.429,134.286 165.714,122.857 		"/>
		<polygon fill="#9CA099" points="142.857,140 165.714,122.857 171.429,134.286 		"/>
		<polygon fill="#989B92" points="182.857,117.143 182.857,100 165.714,122.857 		"/>
		<polygon fill="#487A38" points="131.429,140 142.857,140 125.714,151.428 		"/>
		<polygon fill="#467839" points="165.714,122.857 154.286,122.857 142.857,140 		"/>
		<polygon fill="#467837" points="131.429,140 154.286,122.857 142.857,140 		"/>
		<polygon fill="#A2A39E" points="182.857,100 194.286,94.286 182.857,117.143 		"/>
		<polygon fill="#ABAFA9" points="200,71.428 182.857,100 194.286,94.286 		"/>
		<polygon fill="#52964A" points="154.286,122.857 171.429,105.714 165.714,122.857 		"/>
		<polygon fill="#599B47" points="182.857,100 171.429,105.714 165.714,122.857 		"/>
		<polygon fill="#5F9B48" points="188.571,82.857 182.857,100 200,71.428 		"/>
		<polygon fill="#67A74C" points="171.429,105.714 188.571,82.857 182.857,100 		"/>
		<polygon fill="#559337" points="194.286,71.428 200,71.428 188.571,82.857 		"/>
		<polygon fill="#63A03E" points="200,54.286 200,71.428 194.286,71.428 		"/>
		<polygon fill="#303031" points="194.286,42.857 200,54.286 188.571,54.286 		"/>
		<polygon fill="#2E2E30" points="194.286,71.428 188.571,54.286 200,54.286 		"/>
		<polygon fill="#151516" points="188.571,82.857 194.286,71.428 188.571,54.286 		"/>
		<polygon fill="#201F20" points="171.429,105.714 182.857,77.143 188.571,82.857 		"/>
		<polygon fill="#212022" points="188.571,54.286 182.857,77.143 188.571,82.857 		"/>
		<polygon fill="#303031" points="194.286,42.857 188.571,31.428 188.571,54.286 		"/>
		<polygon fill="#1C1C1C" points="171.429,105.714 160,105.714 182.857,77.143 		"/>
		<polygon fill="#171717" points="154.286,122.857 160,105.714 171.429,105.714 		"/>
		<polygon fill="#121212" points="131.429,140 137.143,128.572 154.286,122.857 		"/>
		<polygon fill="#141414" points="114.286,140 137.143,128.572 131.429,140 		"/>
		<polygon fill="#090909" points="160,105.714 137.143,128.572 154.286,122.857 		"/>
		<polygon fill="#272427" points="188.571,31.428 177.143,20 188.571,37.143 		"/>
		<polygon fill="#3A3B3E" points="165.714,14.286 177.143,20 165.714,20 		"/>
		<polygon fill="#5F6466" points="22.857,134.286 34.286,105.714 17.143,117.143 		"/>
		<polygon fill="#909A9A" points="28.571,94.286 17.143,117.143 34.286,105.714 		"/>
		<polygon fill="#828E92" points="40,77.143 28.571,94.286 34.286,105.714 		"/>
		<polygon fill="#7E8589" points="45.714,82.857 40,77.143 34.286,105.714 		"/>
		<polygon fill="#6E7579" points="57.143,65.714 45.714,82.857 40,77.143 		"/>
		<polygon fill="#40474A" points="57.143,54.286 57.143,65.714 40,77.143 		"/>
		<polygon fill="#B2CD55" points="51.429,54.286 57.143,54.286 40,77.143 		"/>
		<polygon fill="#AAC84C" points="28.571,82.857 40,77.143 51.429,54.286 		"/>
		<polygon fill="#B3D068" points="28.571,94.286 28.571,82.857 40,77.143 		"/>
		<polygon fill="#A8C65A" points="17.143,100 28.571,82.857 28.571,94.286 		"/>
		<polygon fill="#ADC75E" points="17.143,117.143 28.571,94.286 17.143,100 		"/>
		<polygon fill="#AECA4F" points="5.714,122.857 17.143,100 17.143,117.143 		"/>
		<polygon fill="#A9C848" points="11.429,134.286 17.143,117.143 5.714,122.857 		"/>
		<polygon fill="#A6C849" points="0,134.286 5.714,122.857 11.429,134.286 		"/>
		<polygon fill="#E6EAE6" points="5.714,117.143 5.714,122.857 0,134.286 		"/>
		<polygon fill="#E9EBE8" points="17.143,100 5.714,122.857 5.714,117.143 		"/>
		<polygon fill="#F3F3EB" points="11.429,105.714 17.143,100 5.714,117.143 		"/>
		<polygon fill="#EEEFED" points="5.714,105.714 11.429,94.286 11.429,105.714 		"/>
		<polygon fill="#F4F4F2" points="17.143,100 11.429,105.714 11.429,94.286 		"/>
		<polygon fill="#EEEFED" points="28.571,82.857 17.143,82.857 17.143,100 		"/>
		<polygon fill="#F3F3F1" points="11.429,94.286 17.143,82.857 17.143,100 		"/>
		<polygon fill="#434648" points="57.143,54.286 68.571,54.286 57.143,65.714 		"/>
		<polygon fill="#5D6060" points="74.286,42.857 68.571,54.286 80,42.857 		"/>
		<polygon fill="#2D302E" points="57.143,54.286 74.286,42.857 68.571,54.286 		"/>
		<polygon fill="#A4C44D" points="57.143,48.572 51.429,54.286 57.143,54.286 		"/>
		<polygon fill="#AFCA5A" points="74.286,42.857 57.143,54.286 57.143,48.572 		"/>
		<polygon fill="#AFCD52" points="74.286,37.143 57.143,48.572 74.286,42.857 		"/>
		<polygon fill="#2E3130" points="80,42.857 80,37.143 74.286,42.857 		"/>
		<polygon fill="#97C140" points="74.286,37.143 80,37.143 74.286,42.857 		"/>
		<polygon fill="#252827" points="97.143,31.428 80,42.857 80,37.143 		"/>
		<polygon fill="#333434" points="102.857,25.714 80,37.143 97.143,31.428 		"/>
		<polygon fill="#363839" points="114.286,25.714 97.143,31.428 102.857,25.714 		"/>
		<polygon fill="#222323" points="114.286,20 102.857,25.714 114.286,25.714 		"/>
		<polygon fill="#232525" points="125.714,20 114.286,25.714 114.286,20 		"/>
		<polygon fill="#2E3132" points="131.429,14.286 125.714,20 114.286,20 		"/>
		<polygon fill="#DEE3E2" points="137.143,20 125.714,20 131.429,14.286 		"/>
		<polygon fill="#E9E7E3" points="154.286,14.286 137.143,20 131.429,14.286 		"/>
		<polygon fill="#323335" points="165.714,20 165.714,14.286 154.286,14.286 		"/>
		<polygon fill="#242122" points="154.286,8.572 131.429,14.286 165.714,14.286 		"/>
		<polygon fill="#A0C548" points="131.429,8.572 131.429,14.286 154.286,8.572 		"/>
		<polygon fill="#99C141" points="114.286,14.286 131.429,14.286 131.429,8.572 		"/>
		<polygon fill="#9BC04E" points="114.286,20 114.286,14.286 131.429,14.286 		"/>
		<polygon fill="#9FC23F" points="102.857,20 114.286,14.286 114.286,20 		"/>
		<polygon fill="#8DBC42" points="102.857,25.714 102.857,20 114.286,20 		"/>
		<polygon fill="#A8C84F" points="91.429,25.714 102.857,20 102.857,25.714 		"/>
		<polygon fill="#94BA3D" points="80,37.143 102.857,25.714 91.429,25.714 		"/>
		<polygon fill="#B0CD49" points="74.286,37.143 91.429,25.714 80,37.143 		"/>
		<polygon fill="#E0E2DD" points="165.714,20 137.143,20 154.286,14.286 		"/>
		<polygon fill="#DCDDD8" points="188.571,37.143 165.714,20 177.143,20 		"/>
		<polygon fill="#EBEDE7" points="114.286,14.286 102.857,14.286 131.429,8.572 		"/>
		<polygon fill="#E7E9E3" points="102.857,20 91.429,20 102.857,14.286 		"/>
		<polygon fill="#E5E7E3" points="114.286,14.286 102.857,20 102.857,14.286 		"/>
		<polygon fill="#EAEBE6" points="91.429,25.714 91.429,20 102.857,20 		"/>
		<polygon fill="#EFF1EE" points="74.286,37.143 74.286,25.714 91.429,25.714 		"/>
		<polygon fill="#EDEFE9" points="91.429,20 91.429,25.714 74.286,25.714 		"/>
		<polygon fill="#EBEDE9" points="74.286,37.143 57.143,37.143 74.286,25.714 		"/>
		<polygon fill="#F0F2ED" points="57.143,48.572 57.143,37.143 74.286,37.143 		"/>
		<polygon fill="#F3F4F1" points="51.429,54.286 45.714,48.572 57.143,48.572 		"/>
		<polygon fill="#EEF0EC" points="57.143,37.143 57.143,48.572 45.714,48.572 		"/>
		<polygon fill="#EBECE9" points="28.571,82.857 28.571,65.714 51.429,54.286 		"/>
		<polygon fill="#F2F1EF" points="45.714,48.572 28.571,65.714 51.429,54.286 		"/>
		<polygon fill="#EFEFEE" points="17.143,82.857 28.571,65.714 28.571,82.857 		"/>
		<polygon fill="#93978D" points="114.286,140 91.429,151.428 80,151.428 		"/>
		<polygon fill="#E7EAE5" points="34.286,105.714 34.286,128.572 22.857,134.286 		"/>
		<polygon fill="#DBDBD6" points="34.286,151.428 34.286,140 22.857,134.286 		"/>
		<polygon fill="#E2E4DE" points="34.286,128.572 22.857,134.286 34.286,140 		"/>
		<polygon fill="#D6D7D2" points="188.571,37.143 177.143,42.857 171.429,31.428 		"/>
		<polygon fill="#DFDDDC" points="165.714,20 171.429,31.428 188.571,37.143 		"/>
		<polygon fill="#D6D7D4" points="177.143,42.857 188.571,54.286 188.571,37.143 		"/>
		<polygon fill="#E7EAE7" points="45.714,111.428 34.286,128.572 34.286,105.714 		"/>
		<polygon fill="#EFF0ED" points="45.714,82.857 45.714,111.428 34.286,105.714 		"/>
		<polygon fill="#D9DBD5" points="34.286,128.572 45.714,140 45.714,111.428 		"/>
		<polygon fill="#C4C7C1" points="34.286,151.428 45.714,140 34.286,128.572 		"/>
		<polygon fill="#B9C1B2" points="80,151.428 45.714,140 34.286,151.428 		"/>
		<polygon fill="#E4E4E0" points="171.429,31.428 137.143,20 165.714,20 		"/>
		<polygon fill="#DDDFDE" points="177.143,42.857 165.714,42.857 171.429,60 		"/>
		<polygon fill="#DEDFDA" points="188.571,54.286 171.429,60 177.143,42.857 		"/>
		<polygon fill="#D1D3D0" points="182.857,77.143 171.429,60 188.571,54.286 		"/>
		<polygon fill="#E3E3E2" points="154.286,37.143 171.429,31.428 165.714,42.857 		"/>
		<polygon fill="#D6D9D4" points="177.143,42.857 165.714,42.857 171.429,31.428 		"/>
		<polygon fill="#E3E4E1" points="137.143,20 154.286,37.143 171.429,31.428 		"/>
		<polygon fill="#E4E5E2" points="131.429,37.143 154.286,37.143 137.143,20 		"/>
		<polygon fill="#E3E5E0" points="125.714,20 131.429,37.143 137.143,20 		"/>
		<polygon fill="#E7E7E4" points="114.286,25.714 131.429,37.143 125.714,20 		"/>
		<polygon fill="#E3E4DF" points="114.286,42.857 131.429,37.143 114.286,25.714 		"/>
		<polygon fill="#E8E9E4" points="97.143,31.428 114.286,42.857 114.286,25.714 		"/>
		<polygon fill="#E7E9E3" points="80,42.857 85.714,65.714 97.143,54.286 		"/>
		<polygon fill="#E4E6E0" points="114.286,42.857 97.143,42.857 97.143,54.286 		"/>
		<polygon fill="#E6E8E4" points="97.143,31.428 97.143,42.857 114.286,42.857 		"/>
		<polygon fill="#EAEBE8" points="80,42.857 97.143,42.857 97.143,31.428 		"/>
		<polygon fill="#DCDFD8" points="97.143,54.286 97.143,42.857 80,42.857 		"/>
		<polygon fill="#E4E7E3" points="85.714,65.714 68.571,54.286 80,42.857 		"/>
		<polygon fill="#EBEEE9" points="74.286,82.857 68.571,54.286 85.714,65.714 		"/>
		<polygon fill="#EAEDE9" points="57.143,65.714 74.286,82.857 68.571,54.286 		"/>
		<polygon fill="#EBECE8" points="45.714,82.857 74.286,82.857 57.143,65.714 		"/>
		<polygon fill="#E8EAE5" points="45.714,111.428 74.286,82.857 45.714,82.857 		"/>
		<polygon fill="#A9ADA4" points="80,151.428 45.714,111.428 45.714,140 		"/>
		<polygon fill="#B2B8B1" points="74.286,117.143 45.714,111.428 80,151.428 		"/>
		<polygon fill="#B6BCB5" points="91.429,100 74.286,117.143 91.429,117.143 		"/>
		<polygon fill="#BAC1BA" points="114.286,82.857 91.429,100 114.286,100 		"/>
		<polygon fill="#C8CDC8" points="137.143,65.714 114.286,82.857 137.143,82.857 		"/>
		<polygon fill="#DCDDDA" points="154.286,54.286 154.286,71.428 137.143,65.714 		"/>
		<polygon fill="#E0E0DE" points="165.714,42.857 154.286,54.286 171.429,60 		"/>
		<polygon fill="#C4CBC3" points="97.143,77.143 91.429,100 114.286,82.857 		"/>
		<polygon fill="#C8CBC5" points="137.143,65.714 120,65.714 114.286,82.857 		"/>
		<polygon fill="#DFE1DE" points="137.143,48.572 137.143,65.714 154.286,54.286 		"/>
		<polygon fill="#E0E0E1" points="154.286,37.143 154.286,54.286 165.714,42.857 		"/>
		<polygon fill="#DFE0DC" points="137.143,48.572 154.286,37.143 154.286,54.286 		"/>
		<polygon fill="#E5E5E1" points="131.429,37.143 137.143,48.572 154.286,37.143 		"/>
		<polygon fill="#D9DCD8" points="120,65.714 137.143,48.572 137.143,65.714 		"/>
		<polygon fill="#CCD3CB" points="97.143,77.143 114.286,82.857 120,65.714 		"/>
		<polygon fill="#C9CEC8" points="91.429,100 74.286,94.286 97.143,77.143 		"/>
		<polygon fill="#C4C9C2" points="74.286,117.143 74.286,94.286 91.429,100 		"/>
		<polygon fill="#C7CAC3" points="45.714,111.428 74.286,94.286 74.286,117.143 		"/>
		<polygon fill="#D9DCD5" points="74.286,82.857 74.286,94.286 45.714,111.428 		"/>
		<polygon fill="#D3D7D0" points="97.143,77.143 74.286,94.286 74.286,82.857 		"/>
		<polygon fill="#D7DBD5" points="85.714,65.714 74.286,82.857 97.143,77.143 		"/>
		<polygon fill="#DBDED8" points="97.143,54.286 97.143,77.143 85.714,65.714 		"/>
		<polygon fill="#D9DDD7" points="120,65.714 97.143,54.286 97.143,77.143 		"/>
		<polygon fill="#D9DED8" points="114.286,42.857 97.143,54.286 120,65.714 		"/>
		<polygon fill="#DEE0DC" points="137.143,48.572 120,65.714 114.286,42.857 		"/>
		<polygon fill="#DFE0DD" points="131.429,37.143 114.286,42.857 137.143,48.572 		"/>
		<polygon fill="#D9D8D6" points="154.286,71.428 171.429,60 154.286,54.286 		"/>
		<polygon fill="#CCD0CD" points="137.143,65.714 137.143,82.857 154.286,71.428 		"/>
		<polygon fill="#C0C6BF" points="114.286,82.857 114.286,100 137.143,82.857 		"/>
		<polygon fill="#B4BBB5" points="91.429,117.143 114.286,100 91.429,100 		"/>
		<polygon fill="#A9ADA4" points="80,151.428 91.429,117.143 74.286,117.143 		"/>
		<polygon fill="#A7AAA2" points="114.286,100 114.286,140 91.429,117.143 		"/>
		<polygon fill="#9EA59B" points="80,151.428 91.429,117.143 114.286,140 		"/>
		<polygon fill="#9D9F98" points="137.143,128.572 114.286,100 114.286,140 		"/>
		<polygon fill="#A1A69E" points="160,105.714 137.143,100 137.143,128.572 		"/>
		<polygon fill="#B1B6B0" points="137.143,82.857 137.143,100 114.286,100 		"/>
		<polygon fill="#A9AEA8" points="137.143,128.572 114.286,100 137.143,100 		"/>
		<polygon fill="#C3C7C3" points="154.286,71.428 137.143,82.857 160,82.857 		"/>
		<polygon fill="#B4B6B5" points="160,105.714 160,82.857 137.143,100 		"/>
		<polygon fill="#BEC2BF" points="137.143,82.857 137.143,100 160,82.857 		"/>
		<polygon fill="#CBCECA" points="154.286,71.428 160,82.857 171.429,60 		"/>
		<polygon fill="#CECFCF" points="182.857,77.143 160,82.857 171.429,60 		"/>
		<polygon fill="#B9BCB8" points="160,105.714 160,82.857 182.857,77.143 		"/>
		<polygon fill="#A4A699" points="91.429,185.714 68.571,191.428 68.571,180 		"/>
		<polygon fill="#9CA195" points="85.714,174.286 68.571,180 91.429,185.714 		"/>
		<polygon fill="#9CA197" points="68.571,191.428 45.714,185.714 68.571,180 		"/>
		<polygon fill="#8B9086" points="45.714,191.428 45.714,185.714 68.571,191.428 		"/>
		<polygon fill="#497D43" points="34.286,185.714 45.714,185.714 45.714,191.428 		"/>
		<polygon fill="#367930" points="91.429,162.857 68.571,168.572 85.714,174.286 		"/>
		<polygon fill="#4C8B44" points="68.571,180 68.571,168.572 85.714,174.286 		"/>
		<polygon fill="#43863C" points="45.714,174.286 68.571,168.572 68.571,180 		"/>
		<polygon fill="#529647" points="45.714,185.714 45.714,174.286 68.571,180 		"/>
		<polygon fill="#4C8C3F" points="34.286,185.714 45.714,174.286 45.714,185.714 		"/>
		<polygon fill="#5C9D4C" points="28.571,174.286 45.714,174.286 34.286,185.714 		"/>
		<polygon fill="#4F9246" points="17.143,174.286 34.286,185.714 28.571,174.286 		"/>
		<polygon fill="#91BF4C" points="17.143,168.572 28.571,174.286 17.143,174.286 		"/>
		<polygon fill="#1F1F1F" points="5.714,162.857 17.143,174.286 17.143,168.572 		"/>
		<polygon fill="#3F7D3C" points="11.429,157.143 17.143,168.572 5.714,162.857 		"/>
		<polygon fill="#75AF3A" points="5.714,157.143 5.714,162.857 11.429,157.143 		"/>
		<polygon fill="#111111" points="34.286,157.143 17.143,168.572 11.429,157.143 		"/>
		<polygon fill="#191919" points="28.571,174.286 17.143,168.572 34.286,157.143 		"/>
		<polygon fill="#1C1C1C" points="45.714,174.286 34.286,157.143 28.571,174.286 		"/>
		<polygon fill="#1C1C1C" points="57.143,157.143 68.571,168.572 45.714,174.286 		"/>
		<polygon fill="#141414" points="91.429,162.857 80,151.428 68.571,168.572 		"/>
		<polygon fill="#191919" points="91.429,151.428 80,151.428 91.429,162.857 		"/>
		<polygon fill="#1D1D1D" points="57.143,157.143 80,151.428 68.571,168.572 		"/>
		<polygon fill="#1D1D1D" points="34.286,157.143 57.143,157.143 45.714,174.286 		"/>
		<polygon fill="#C0C4BC" points="34.286,151.428 28.571,151.428 34.286,157.143 		"/>
		<polygon fill="#B0B4AE" points="22.857,134.286 28.571,151.428 34.286,151.428 		"/>
		<polygon fill="#B4BAB2" points="34.286,157.143 57.143,157.143 34.286,151.428 		"/>
		<polygon fill="#A7ADA6" points="80,151.428 34.286,151.428 57.143,157.143 		"/>
	</g>
</g>
</svg>
