<?xml version="1.0" encoding="utf-8"?>
<!-- Generator: Adobe Illustrator 16.0.0, SVG Export Plug-In . SVG Version: 6.00 Build 0)  -->
<!DOCTYPE svg PUBLIC "-//W3C//DTD SVG 1.1//EN" "http://www.w3.org/Graphics/SVG/1.1/DTD/svg11.dtd">
<svg version="1.1" id="Layer_1" xmlns="http://www.w3.org/2000/svg" xmlns:xlink="http://www.w3.org/1999/xlink" x="0px" y="0px"
	 width="35px" height="35px" viewBox="0 0 35 35" enable-background="new 0 0 35 35" xml:space="preserve">
<g>
	<path fill="#221F1F" d="M34.27,14.546h-5.278V9.271c0-0.406-0.325-0.73-0.727-0.73h-1.506c-0.401,0-0.73,0.324-0.73,0.73v5.275
		h-5.275c-0.404,0-0.729,0.329-0.729,0.729v1.507c0,0.4,0.325,0.727,0.729,0.727h5.275v5.278c0,0.405,0.329,0.729,0.73,0.729h1.506
		c0.401,0,0.727-0.324,0.727-0.729v-5.278h5.278c0.401,0,0.73-0.326,0.73-0.727v-1.507C35,14.875,34.671,14.546,34.27,14.546"/>
	<path fill="#221F1F" d="M7.685,5.417c0.495-0.564,1.141-0.86,1.867-0.86h0.082c2.053,0.061,4.017,2.345,4.377,5.097
		c0.204,1.542-0.137,2.99-0.912,3.87c-0.496,0.563-1.133,0.864-1.892,0.864h-0.032c-2.013-0.06-4.017-2.435-4.375-5.182
		C6.598,7.669,6.918,6.29,7.685,5.417 M4.808,26.043c0-2.185,2.771-4.099,5.933-4.099h0.086c0.689,0.008,1.359,0.109,1.992,0.304
		c0.219,0.15,0.426,0.292,0.628,0.429c1.465,0.999,2.431,1.656,2.698,2.713c0.065,0.268,0.099,0.529,0.099,0.79
		c0,2.72-2.029,4.099-6.03,4.099C7.182,30.278,4.808,28.417,4.808,26.043 M16.535,19.172c-1.112-0.787-2.118-1.938-2.138-2.292
		c0-0.645,0.06-0.953,1.505-2.081c1.871-1.466,2.902-3.39,2.902-5.421c0-1.848-0.564-3.482-1.526-4.635h0.746
		c0.154,0,0.304-0.049,0.427-0.139L20.527,3.1c0.259-0.183,0.365-0.512,0.268-0.814c-0.097-0.302-0.378-0.505-0.694-0.505h-9.284
		c-1.018,0-2.049,0.18-3.063,0.528c-3.384,1.165-5.75,4.05-5.75,7.007c0,4.197,3.25,7.373,7.592,7.476
		c-0.084,0.333-0.125,0.657-0.125,0.978c0,0.649,0.163,1.258,0.499,1.851H9.851c-4.138,0-7.875,2.032-9.296,5.054
		C0.187,25.458,0,26.254,0,27.04c0,0.764,0.195,1.498,0.58,2.188c0.889,1.594,2.804,2.832,5.393,3.485
		c1.335,0.336,2.771,0.507,4.261,0.507c1.339,0,2.617-0.171,3.797-0.515c3.676-1.067,6.058-3.773,6.058-6.903
		C20.089,22.801,19.123,21.003,16.535,19.172"/>
</g>
</svg>
