<?xml version="1.0" encoding="utf-8"?>
<!-- Generator: Adobe Illustrator 16.0.0, SVG Export Plug-In . SVG Version: 6.00 Build 0)  -->
<!DOCTYPE svg PUBLIC "-//W3C//DTD SVG 1.1//EN" "http://www.w3.org/Graphics/SVG/1.1/DTD/svg11.dtd">
<svg version="1.1" id="Layer_1" xmlns="http://www.w3.org/2000/svg" xmlns:xlink="http://www.w3.org/1999/xlink" x="0px" y="0px"
	 width="35px" height="35px" viewBox="0 0 35 35" enable-background="new 0 0 35 35" xml:space="preserve">
<path fill="#221F1F" d="M31.59,28.235c0,1.847-1.504,3.351-3.354,3.351H6.764c-1.852,0-3.356-1.504-3.356-3.351V13.908h5.228
	C8.183,15.018,7.93,16.229,7.93,17.5c0,5.276,4.293,9.569,9.57,9.569c5.275,0,9.568-4.293,9.568-9.569
	c0-1.271-0.252-2.482-0.705-3.592h5.227V28.235z M12.505,13.908c1.122-1.554,2.94-2.568,4.996-2.568
	c2.054,0,3.873,1.015,4.994,2.568c0.73,1.012,1.166,2.25,1.166,3.592c0,3.396-2.764,6.157-6.16,6.157
	c-3.397,0-6.162-2.761-6.162-6.157C11.339,16.158,11.775,14.92,12.505,13.908 M30.176,4.033h0.771v0.771v5.156l-5.914,0.021
	l-0.016-5.933L30.176,4.033z M28.236,0H6.764C3.033,0,0,3.034,0,6.765v7.144v14.327C0,31.966,3.033,35,6.764,35h21.472
	C31.967,35,35,31.966,35,28.235V13.908V6.765C35,3.034,31.967,0,28.236,0"/>
</svg>
