<?xml version="1.0" encoding="utf-8"?>
<!-- Generator: Adobe Illustrator 16.0.0, SVG Export Plug-In . SVG Version: 6.00 Build 0)  -->
<!DOCTYPE svg PUBLIC "-//W3C//DTD SVG 1.1//EN" "http://www.w3.org/Graphics/SVG/1.1/DTD/svg11.dtd">
<svg version="1.1" id="Layer_1" xmlns="http://www.w3.org/2000/svg" xmlns:xlink="http://www.w3.org/1999/xlink" x="0px" y="0px"
	 width="35px" height="35px" viewBox="0 0 35 35" enable-background="new 0 0 35 35" xml:space="preserve">
<path fill="#221F1F" d="M18.321,0C8.771,0,3.954,6.846,3.954,12.559c0,3.456,1.308,6.534,4.114,7.679
	c0.462,0.191,0.873,0.008,1.007-0.504c0.093-0.349,0.312-1.242,0.41-1.611c0.138-0.504,0.084-0.683-0.288-1.121
	c-0.809-0.954-1.329-2.193-1.329-3.943c0-5.079,3.805-9.628,9.9-9.628c5.399,0,8.364,3.297,8.364,7.703
	c0,5.798-2.566,10.692-6.375,10.692c-2.099,0-3.675-1.742-3.172-3.875c0.606-2.544,1.775-5.293,1.775-7.133
	c0-1.644-0.882-3.017-2.712-3.017c-2.147,0-3.875,2.225-3.875,5.202c0,1.899,0.638,3.183,0.638,3.183s-2.196,9.32-2.581,10.955
	c-0.772,3.252-0.118,7.236-0.062,7.639c0.032,0.238,0.338,0.296,0.476,0.117c0.199-0.26,2.762-3.423,3.63-6.582
	c0.248-0.894,1.414-5.525,1.414-5.525c0.702,1.336,2.74,2.506,4.913,2.506c6.463,0,10.845-5.889,10.845-13.779
	C31.046,5.554,25.995,0,18.321,0"/>
</svg>
