<?xml version="1.0" encoding="utf-8"?>
<!-- Generator: Adobe Illustrator 16.0.0, SVG Export Plug-In . SVG Version: 6.00 Build 0)  -->
<!DOCTYPE svg PUBLIC "-//W3C//DTD SVG 1.1//EN" "http://www.w3.org/Graphics/SVG/1.1/DTD/svg11.dtd">
<svg version="1.1" id="Layer_1" xmlns="http://www.w3.org/2000/svg" xmlns:xlink="http://www.w3.org/1999/xlink" x="0px" y="0px"
	 width="35px" height="35px" viewBox="0 0 35 35" enable-background="new 0 0 35 35" xml:space="preserve">
<path fill="#231F20" d="M34.238,30.615l-11.186-11.18c3.202-4.874,2.661-11.478-1.621-15.762C16.53-1.226,8.583-1.226,3.677,3.68
	c-4.902,4.899-4.902,12.849,0,17.753c4.282,4.283,10.888,4.819,15.759,1.621l11.18,11.185c1.01,1.005,2.637,1.019,3.64,0.017
	C35.252,33.256,35.246,31.625,34.238,30.615 M18.629,18.628c-3.353,3.353-8.793,3.355-12.147,0c-3.355-3.358-3.355-8.792,0-12.148
	c3.354-3.356,8.794-3.356,12.147,0C21.98,9.835,21.98,15.27,18.629,18.628"/>
</svg>
