<?xml version="1.0" encoding="utf-8"?>
<!-- Generator: Adobe Illustrator 16.0.0, SVG Export Plug-In . SVG Version: 6.00 Build 0)  -->
<!DOCTYPE svg PUBLIC "-//W3C//DTD SVG 1.1//EN" "http://www.w3.org/Graphics/SVG/1.1/DTD/svg11.dtd">
<svg version="1.1" id="Layer_1" xmlns="http://www.w3.org/2000/svg" xmlns:xlink="http://www.w3.org/1999/xlink" x="0px" y="0px"
	 width="35px" height="35px" viewBox="0 0 35 35" enable-background="new 0 0 35 35" xml:space="preserve">
<path fill="#221F1F" d="M35,6.646c-1.288,0.57-2.671,0.956-4.124,1.133c1.482-0.891,2.623-2.298,3.156-3.976
	c-1.387,0.824-2.922,1.423-4.559,1.743c-1.309-1.395-3.176-2.265-5.24-2.265c-3.964,0-7.18,3.213-7.18,7.177
	c0,0.565,0.061,1.111,0.185,1.637c-5.966-0.299-11.259-3.155-14.8-7.5c-0.615,1.058-0.973,2.293-0.973,3.61
	c0,2.491,1.269,4.687,3.197,5.974c-1.178-0.036-2.286-0.361-3.254-0.897v0.089c0,3.48,2.474,6.381,5.76,7.042
	c-0.603,0.164-1.239,0.254-1.891,0.254c-0.464,0-0.916-0.045-1.35-0.131c0.911,2.852,3.565,4.928,6.704,4.984
	c-2.457,1.929-5.552,3.078-8.916,3.078c-0.58,0-1.154-0.037-1.716-0.103c3.18,2.038,6.955,3.224,11.009,3.224
	c13.209,0,20.43-10.938,20.43-20.429c0-0.307-0.008-0.619-0.02-0.927C32.821,9.35,34.04,8.086,35,6.646"/>
</svg>
