<?xml version="1.0" encoding="utf-8"?>
<!-- Generator: Adobe Illustrator 16.0.0, SVG Export Plug-In . SVG Version: 6.00 Build 0)  -->
<!DOCTYPE svg PUBLIC "-//W3C//DTD SVG 1.1//EN" "http://www.w3.org/Graphics/SVG/1.1/DTD/svg11.dtd">
<svg version="1.1" id="Layer_1" xmlns="http://www.w3.org/2000/svg" xmlns:xlink="http://www.w3.org/1999/xlink" x="0px" y="0px"
	 width="35px" height="35px" viewBox="0 0 35 35" enable-background="new 0 0 35 35" xml:space="preserve">
<g>
	<path d="M28.607,16.689H6.393C2.865,16.689,0,19.555,0,23.085v5.142c0,3.526,2.865,6.393,6.393,6.393h22.214
		c3.531,0,6.394-2.865,6.394-6.393v-5.142C35,19.555,32.139,16.689,28.607,16.689z M11.063,20.689L11.063,20.689H8.997V30.95H7.003
		V20.689H4.938v-1.746h6.125V20.689z M16.895,30.95h-1.769v-0.97c-0.329,0.359-0.667,0.631-1.021,0.816
		c-0.355,0.193-0.697,0.284-1.031,0.284c-0.408,0-0.717-0.132-0.923-0.396c-0.207-0.264-0.313-0.656-0.313-1.188v-7.405h1.772v6.797
		c0,0.211,0.037,0.357,0.106,0.452c0.079,0.097,0.203,0.142,0.368,0.142c0.127,0,0.292-0.062,0.495-0.188
		c0.197-0.123,0.378-0.279,0.547-0.473v-6.73h1.769V30.95z M22.904,30.564c-0.277,0.334-0.682,0.5-1.205,0.5
		c-0.346,0-0.654-0.062-0.928-0.192c-0.269-0.13-0.523-0.326-0.754-0.599v0.677h-1.793V18.943h1.793v3.865
		c0.239-0.269,0.489-0.475,0.758-0.613c0.27-0.141,0.541-0.211,0.817-0.211c0.56,0,0.988,0.187,1.279,0.564
		c0.299,0.381,0.446,0.932,0.446,1.656v4.919h0.002C23.32,29.75,23.18,30.229,22.904,30.564z M29.461,26.736h-1.753h-1.636h-0.03
		v2.11c0,0.297,0.164,0.546,0.398,0.693c0.021,0.012,0.037,0.03,0.061,0.04c0.113,0.059,0.237,0.1,0.374,0.1
		c0.46,0,0.833-0.373,0.833-0.833v-0.844h1.753v0.453c0,0.907-0.223,1.591-0.668,2.053c-0.441,0.457-1.105,0.685-1.986,0.685
		c-0.797,0-1.422-0.242-1.875-0.729c-0.453-0.483-0.686-1.153-0.686-2.008v-3.981c0-0.762,0.252-1.394,0.756-1.879
		c0.498-0.482,1.141-0.722,1.938-0.722c0.812,0,1.435,0.224,1.869,0.672s0.652,1.093,0.652,1.929V26.736z"/>
	<path d="M20.758,23.393c-0.127,0-0.252,0.028-0.375,0.088c-0.125,0.054-0.244,0.147-0.367,0.268v5.52
		c0.146,0.144,0.285,0.256,0.42,0.317c0.138,0.062,0.277,0.095,0.429,0.095c0.221,0,0.375-0.062,0.479-0.189
		c0.098-0.124,0.152-0.325,0.152-0.61v-4.573c0-0.302-0.062-0.529-0.188-0.681C21.178,23.471,20.996,23.393,20.758,23.393z"/>
	<polygon points="9.303,13.612 11.545,13.612 11.545,8.122 14.159,0.382 11.879,0.382 10.49,5.67 10.35,5.67 8.891,0.382 
		6.632,0.382 9.303,8.369 	"/>
	<path d="M17.199,13.858c0.906,0,1.615-0.238,2.135-0.713c0.516-0.479,0.771-1.129,0.771-1.962V6.139
		c0-0.741-0.26-1.351-0.789-1.825c-0.525-0.47-1.203-0.705-2.026-0.705c-0.907,0-1.629,0.223-2.164,0.672
		c-0.535,0.444-0.804,1.047-0.804,1.805v5.057c0,0.829,0.26,1.489,0.783,1.979C15.628,13.611,16.325,13.858,17.199,13.858z
		 M16.598,5.492c0.156-0.132,0.35-0.194,0.593-0.194c0.268,0,0.478,0.062,0.644,0.194c0.16,0.136,0.242,0.305,0.242,0.52v5.316
		c0,0.26-0.082,0.465-0.238,0.618c-0.161,0.147-0.376,0.222-0.647,0.222c-0.26,0-0.466-0.069-0.606-0.222
		c-0.14-0.145-0.214-0.351-0.214-0.618V6.012H16.37C16.37,5.797,16.448,5.628,16.598,5.492z"/>
	<path d="M23.115,13.754c0.375,0,0.76-0.105,1.154-0.312c0.399-0.206,0.782-0.512,1.149-0.911v1.084h1.994v-9.76H25.42v7.406
		c-0.186,0.214-0.393,0.388-0.615,0.522c-0.227,0.141-0.41,0.207-0.555,0.207c-0.189,0-0.326-0.05-0.404-0.156
		c-0.088-0.104-0.133-0.269-0.133-0.499v-7.48h-1.99v8.156c0,0.581,0.119,1.013,0.351,1.302
		C22.309,13.606,22.654,13.754,23.115,13.754z"/>
	<path d="M26.875,23.707c-0.46,0-0.833,0.373-0.833,0.833v0.726h1.666V24.54C27.708,24.08,27.335,23.707,26.875,23.707z"/>
</g>
</svg>
